<?xml version="1.0" encoding="UTF-8"?><svg id="Layer_2" xmlns="http://www.w3.org/2000/svg" viewBox="0 0 282.37 62.74"><defs><style>.cls-1,.cls-2{fill:#8fc740;}.cls-3,.cls-4{fill:#fff;}.cls-4,.cls-5,.cls-2,.cls-6{fill-rule:evenodd;}.cls-5{stroke-width:.23px;}.cls-5,.cls-7,.cls-8{stroke:#fff;stroke-miterlimit:2.61;}.cls-5,.cls-6,.cls-9{fill:#0b6624;}.cls-7{stroke-width:.23px;}.cls-7,.cls-8{fill:none;}.cls-8{stroke-width:.06px;}.cls-10{fill:#58595b;}</style></defs><g id="Layer_1-2"><g><path class="cls-10" d="M.89,59.52l2.83-13.57H7.81c.98,0,1.73,.07,2.25,.21,.74,.19,1.37,.53,1.9,1.02,.52,.49,.92,1.1,1.18,1.84,.26,.73,.39,1.56,.39,2.47,0,1.09-.16,2.09-.49,2.99-.33,.9-.76,1.69-1.3,2.37-.53,.68-1.09,1.22-1.68,1.6-.58,.39-1.27,.67-2.07,.86-.61,.14-1.35,.21-2.23,.21H.89Zm2.14-1.54h2.15c.97,0,1.83-.09,2.58-.27,.47-.11,.87-.28,1.2-.49,.44-.27,.84-.64,1.19-1.1,.47-.61,.84-1.3,1.12-2.07,.28-.77,.42-1.66,.42-2.64,0-1.1-.19-1.94-.57-2.53-.38-.59-.87-.98-1.46-1.17-.44-.14-1.12-.21-2.05-.21h-2.39l-2.2,10.49h0Zm13.72-10.14l.4-1.9h1.67l-.4,1.9h-1.67Zm-2.44,11.67l2.05-9.83h1.67l-2.05,9.83h-1.67Zm4.43-3.36l1.67-.1c0,.48,.08,.89,.22,1.23,.15,.34,.42,.62,.82,.83,.4,.21,.86,.32,1.39,.32,.74,0,1.3-.15,1.67-.44,.37-.3,.56-.65,.56-1.05,0-.29-.11-.56-.33-.82-.23-.26-.78-.58-1.67-.96-.89-.38-1.45-.65-1.7-.8-.41-.25-.72-.55-.94-.89-.21-.34-.31-.74-.31-1.18,0-.78,.31-1.44,.93-2,.62-.56,1.48-.83,2.59-.83,1.23,0,2.17,.29,2.82,.86,.64,.57,.98,1.32,1,2.26l-1.64,.11c-.03-.59-.23-1.06-.63-1.41-.39-.35-.95-.52-1.67-.52-.58,0-1.03,.13-1.35,.39-.32,.27-.48,.55-.48,.86s.14,.58,.42,.82c.18,.16,.66,.41,1.43,.74,1.28,.56,2.09,1,2.42,1.31,.53,.51,.8,1.14,.8,1.87,0,.49-.15,.97-.45,1.43-.3,.47-.76,.84-1.37,1.12-.61,.28-1.34,.42-2.17,.42-1.13,0-2.1-.28-2.9-.84-.8-.56-1.17-1.48-1.13-2.74h0Zm16.11-.22l1.67,.18c-.42,1.23-1.02,2.14-1.79,2.74-.77,.59-1.66,.89-2.64,.89-1.07,0-1.93-.34-2.6-1.04-.66-.69-1-1.66-1-2.9,0-1.07,.21-2.13,.64-3.17,.43-1.04,1.04-1.82,1.83-2.36,.79-.54,1.7-.81,2.72-.81s1.89,.3,2.51,.89c.62,.6,.93,1.38,.93,2.37l-1.65,.11c0-.63-.19-1.11-.54-1.46-.36-.35-.82-.53-1.4-.53-.67,0-1.26,.21-1.75,.64-.49,.43-.88,1.07-1.16,1.94-.28,.87-.42,1.7-.42,2.5s.19,1.47,.56,1.89c.37,.42,.83,.63,1.37,.63s1.07-.21,1.56-.62c.5-.41,.89-1.04,1.17-1.89h0Zm2.99-.15c0-1.92,.57-3.51,1.69-4.77,.93-1.04,2.15-1.56,3.67-1.56,1.18,0,2.14,.37,2.87,1.11,.72,.74,1.09,1.74,1.09,3,0,1.13-.23,2.18-.69,3.15-.45,.97-1.11,1.72-1.95,2.23-.84,.52-1.73,.78-2.66,.78-.76,0-1.46-.16-2.09-.49-.63-.33-1.11-.79-1.43-1.39-.33-.6-.5-1.29-.5-2.08h0Zm1.67-.16c0,.93,.22,1.63,.67,2.1,.45,.48,1.01,.72,1.69,.72,.36,0,.71-.07,1.06-.22,.35-.15,.68-.36,.98-.66,.3-.3,.56-.64,.77-1.01,.21-.38,.39-.79,.52-1.23,.19-.61,.29-1.2,.29-1.76,0-.89-.22-1.58-.67-2.07-.45-.49-1.01-.73-1.69-.73-.52,0-1,.12-1.43,.37-.43,.25-.82,.62-1.17,1.1-.35,.48-.6,1.04-.77,1.68-.16,.64-.25,1.21-.25,1.71h0Zm11.05,3.9l-1.61-9.83h1.63l.84,5.42c.09,.59,.21,1.56,.34,2.9,.32-.7,.73-1.5,1.23-2.4l3.29-5.92h1.77l-5.63,9.83h-1.86Zm14.22-3.34l1.63,.17c-.23,.81-.77,1.58-1.61,2.31-.84,.73-1.85,1.09-3.01,1.09-.73,0-1.4-.17-2-.5-.61-.34-1.07-.83-1.39-1.47-.32-.64-.47-1.37-.47-2.19,0-1.07,.25-2.11,.74-3.12,.5-1.01,1.14-1.76,1.93-2.25,.79-.49,1.65-.74,2.57-.74,1.17,0,2.11,.37,2.81,1.09,.7,.73,1.05,1.72,1.05,2.98,0,.48-.04,.98-.13,1.48h-7.24c-.02,.19-.03,.36-.03,.52,0,.92,.21,1.62,.63,2.11,.42,.48,.94,.73,1.55,.73,.57,0,1.14-.19,1.69-.57,.56-.38,.99-.92,1.3-1.63h0Zm-4.87-2.43h5.52c0-.17,0-.3,0-.37,0-.84-.21-1.48-.63-1.93-.42-.45-.96-.67-1.62-.67-.71,0-1.37,.25-1.96,.74-.59,.49-1.03,1.24-1.32,2.23h0Zm8.19,5.78l2.06-9.83h1.48l-.41,2.01c.51-.76,1-1.32,1.49-1.68,.48-.36,.98-.55,1.48-.55,.33,0,.74,.12,1.23,.36l-.69,1.55c-.29-.21-.61-.32-.95-.32-.58,0-1.19,.33-1.8,.98-.62,.65-1.1,1.83-1.45,3.53l-.83,3.94h-1.59Zm15.91,0l1.09-5.25-4.17-8.32h1.94l2,3.96c.44,.86,.87,1.79,1.28,2.78,.46-.84,1.08-1.76,1.87-2.75l3.19-3.99h2.17l-6.48,8.46-1.06,5.11h-1.81Zm7.23-3.73c0-1.92,.57-3.51,1.69-4.77,.93-1.04,2.16-1.56,3.67-1.56,1.18,0,2.14,.37,2.87,1.11,.72,.74,1.09,1.74,1.09,3,0,1.13-.23,2.18-.69,3.15-.45,.97-1.11,1.72-1.95,2.23-.84,.52-1.73,.78-2.66,.78-.76,0-1.46-.16-2.09-.49-.63-.33-1.11-.79-1.43-1.39-.33-.6-.5-1.29-.5-2.08h0Zm1.67-.16c0,.93,.22,1.63,.67,2.1,.45,.48,1.01,.72,1.69,.72,.36,0,.71-.07,1.06-.22,.35-.15,.68-.36,.98-.66,.3-.3,.56-.64,.77-1.01,.21-.38,.39-.79,.51-1.23,.19-.61,.29-1.2,.29-1.76,0-.89-.22-1.58-.67-2.07-.45-.49-1.01-.73-1.69-.73-.52,0-1,.12-1.43,.37-.43,.25-.82,.62-1.17,1.1-.35,.48-.6,1.04-.77,1.68-.16,.64-.25,1.21-.25,1.71h0Zm15.28,2.12c-1.18,1.33-2.39,2-3.62,2-.76,0-1.37-.22-1.84-.65-.46-.44-.7-.97-.7-1.6,0-.41,.1-1.12,.32-2.13l1.18-5.68h1.67l-1.31,6.28c-.11,.52-.17,.93-.17,1.22,0,.37,.11,.66,.34,.87,.22,.21,.56,.31,1,.31,.47,0,.93-.11,1.37-.34,.45-.23,.83-.54,1.16-.93,.33-.39,.59-.85,.79-1.38,.14-.34,.29-.94,.47-1.79l.89-4.25h1.68l-2.06,9.83h-1.55l.37-1.78h0Zm3.83,1.78l2.06-9.83h1.48l-.41,2.01c.51-.76,1-1.32,1.49-1.68,.48-.36,.98-.55,1.49-.55,.33,0,.74,.12,1.23,.36l-.69,1.55c-.29-.21-.61-.32-.95-.32-.58,0-1.19,.33-1.8,.98-.62,.65-1.1,1.83-1.45,3.53l-.83,3.94h-1.59Zm11.8,0l2.83-13.57h4.09c.98,0,1.73,.07,2.25,.21,.74,.19,1.37,.53,1.9,1.02,.52,.49,.92,1.1,1.18,1.84,.26,.73,.39,1.56,.39,2.47,0,1.09-.16,2.09-.49,2.99-.33,.9-.76,1.69-1.3,2.37-.53,.68-1.09,1.22-1.68,1.6-.58,.39-1.27,.67-2.07,.86-.61,.14-1.35,.21-2.23,.21h-4.89Zm2.14-1.54h2.15c.97,0,1.83-.09,2.58-.27,.47-.11,.87-.28,1.2-.49,.44-.27,.84-.64,1.19-1.1,.47-.61,.84-1.3,1.12-2.07,.28-.77,.42-1.66,.42-2.64,0-1.1-.19-1.94-.57-2.53-.38-.59-.87-.98-1.46-1.17-.44-.14-1.12-.21-2.05-.21h-2.39l-2.2,10.49h0Zm13.72-10.14l.4-1.9h1.67l-.4,1.9h-1.67Zm-2.44,11.67l2.05-9.83h1.68l-2.05,9.83h-1.67Zm10.9-1.22c-.58,.5-1.14,.87-1.67,1.1-.54,.23-1.11,.35-1.72,.35-.91,0-1.64-.27-2.2-.8-.55-.53-.83-1.22-.83-2.05,0-.55,.12-1.04,.37-1.46,.25-.42,.58-.76,1-1.02,.41-.26,.92-.44,1.52-.55,.38-.07,1.09-.13,2.14-.18,1.05-.04,1.81-.15,2.26-.33,.13-.46,.2-.84,.2-1.14,0-.39-.14-.69-.43-.92-.39-.31-.96-.46-1.7-.46-.7,0-1.28,.15-1.73,.47-.45,.31-.77,.76-.98,1.33l-1.7-.15c.35-.97,.89-1.72,1.64-2.24,.75-.52,1.7-.78,2.84-.78,1.22,0,2.18,.29,2.89,.87,.54,.43,.82,.99,.82,1.68,0,.52-.08,1.13-.23,1.82l-.55,2.45c-.17,.78-.26,1.41-.26,1.9,0,.31,.07,.75,.21,1.33h-1.7c-.09-.32-.15-.73-.19-1.22h0Zm.62-3.76c-.23,.09-.49,.16-.76,.21-.27,.05-.72,.1-1.35,.16-.97,.09-1.66,.2-2.06,.33-.4,.13-.7,.34-.91,.64-.21,.29-.31,.61-.31,.96,0,.47,.16,.86,.49,1.16,.32,.3,.78,.45,1.38,.45,.56,0,1.09-.15,1.6-.44,.51-.29,.92-.7,1.21-1.23,.3-.52,.53-1.27,.7-2.24h0Zm3.29,4.98l2.06-9.83h1.67l-.34,1.62c.62-.7,1.18-1.18,1.67-1.44,.49-.27,1.02-.4,1.6-.4,.61,0,1.12,.16,1.53,.49,.41,.33,.68,.78,.81,1.36,.5-.62,1.03-1.08,1.58-1.38,.55-.3,1.13-.46,1.75-.46,.82,0,1.43,.2,1.85,.58,.41,.39,.62,.94,.62,1.64,0,.3-.07,.8-.21,1.5l-1.32,6.33h-1.68l1.35-6.5c.12-.53,.18-.91,.18-1.14,0-.32-.1-.58-.31-.76-.2-.19-.49-.28-.86-.28-.5,0-1.01,.15-1.53,.45-.52,.3-.92,.7-1.21,1.19-.29,.49-.54,1.24-.76,2.26l-1,4.77h-1.68l1.39-6.64c.1-.45,.15-.77,.15-.96,0-.32-.1-.58-.3-.78-.2-.2-.46-.3-.78-.3-.47,0-.97,.15-1.49,.45-.52,.3-.94,.72-1.27,1.26-.33,.54-.59,1.31-.81,2.31l-.97,4.65h-1.68Zm16.1-3.73c0-1.92,.57-3.51,1.69-4.77,.93-1.04,2.16-1.56,3.67-1.56,1.18,0,2.14,.37,2.87,1.11,.72,.74,1.09,1.74,1.09,3,0,1.13-.23,2.18-.69,3.15-.45,.97-1.11,1.72-1.95,2.23-.84,.52-1.73,.78-2.66,.78-.76,0-1.46-.16-2.09-.49-.63-.33-1.11-.79-1.43-1.39-.33-.6-.5-1.29-.5-2.08h0Zm1.67-.16c0,.93,.22,1.63,.67,2.1,.45,.48,1.01,.72,1.69,.72,.36,0,.71-.07,1.07-.22,.35-.15,.68-.36,.98-.66,.3-.3,.56-.64,.77-1.01,.21-.38,.39-.79,.51-1.23,.19-.61,.29-1.2,.29-1.76,0-.89-.22-1.58-.67-2.07-.45-.49-1.01-.73-1.69-.73-.52,0-1,.12-1.43,.37-.43,.25-.82,.62-1.17,1.1-.35,.48-.6,1.04-.77,1.68-.16,.64-.25,1.21-.25,1.71h0Zm8.57,3.9l2.06-9.83h1.52l-.36,1.71c.66-.67,1.28-1.17,1.85-1.47,.57-.31,1.16-.46,1.76-.46,.8,0,1.42,.22,1.88,.65,.45,.43,.68,1.01,.68,1.73,0,.37-.08,.94-.24,1.72l-1.25,5.95h-1.68l1.31-6.23c.13-.6,.2-1.05,.2-1.34,0-.33-.11-.59-.34-.8-.23-.21-.55-.31-.98-.31-.86,0-1.62,.31-2.29,.93-.67,.62-1.16,1.67-1.48,3.18l-.95,4.57h-1.68Zm17.17-1.43c-.96,1.1-1.96,1.65-3,1.65-.93,0-1.71-.34-2.33-1.03-.62-.69-.93-1.69-.93-3,0-1.2,.25-2.29,.74-3.28,.49-.99,1.11-1.73,1.84-2.22,.74-.5,1.48-.74,2.22-.74,1.22,0,2.15,.59,2.77,1.77l1.11-5.29h1.67l-2.83,13.57h-1.55l.3-1.43h0Zm-4.59-2.7c0,.69,.07,1.23,.2,1.62,.14,.39,.37,.72,.7,.99,.33,.26,.72,.39,1.18,.39,.76,0,1.45-.39,2.06-1.19,.83-1.05,1.24-2.34,1.24-3.89,0-.78-.21-1.38-.61-1.82-.41-.44-.92-.66-1.54-.66-.4,0-.76,.09-1.1,.27-.33,.18-.66,.48-.98,.91-.33,.43-.6,.98-.82,1.64-.22,.66-.33,1.24-.33,1.74h0Z"/><path class="cls-2" d="M219.03,0h58.9c2.44,0,4.44,2,4.44,4.44V58.3c0,2.44-2,4.44-4.44,4.44h-58.9c-2.44,0-4.44-2-4.44-4.44V4.44c0-2.44,2-4.44,4.44-4.44h0Z"/><polygon class="cls-4" points="242.03 33.72 240.3 54.54 226.64 54.54 226.64 32.41 226.64 8.2 241.35 8.2 239.63 19.05 243.21 15.42 248.48 18.45 253.76 15.46 257.38 19.05 255.61 8.2 270.32 8.2 270.32 32.41 270.32 54.54 256.66 54.54 254.94 33.72 242.03 33.72 242.03 33.72"/><polygon class="cls-5" points="244.21 20.73 241.3 23.62 248.47 31.98 255.64 23.62 252.73 20.73 250.08 20.43 248.47 20.46 246.86 20.43 244.21 20.73 244.21 20.73"/><path class="cls-8" d="M252.64,20.73l.9,3.09-3.52-3.49-1.77,4.12-1.63-4.06-3.47,3.86,1.15-3.52m9.24,3.1l-5.1,8.07-5.29-7.64"/><polyline class="cls-7" points="255.64 23.62 253.51 23.82 251 24.38 248.26 24.45 245.55 24.39 243.21 24.24 241.3 23.62"/><polygon class="cls-3" points="246.67 20.51 245.77 24.34 248.46 31.65 250.88 24.37 249.92 20.56 250.02 20.33 250.13 20.44 251.11 24.34 251.11 24.41 248.47 32.16 245.55 24.39 245.54 24.32 246.43 20.6 246.62 20.38 246.67 20.51 246.67 20.51"/><line class="cls-8" x1="248.26" y1="24.45" x2="248.45" y2="31.96"/><polygon class="cls-9" points="0 39.8 10.38 39.8 10.38 26.49 20.09 26.49 20.09 39.8 30.47 39.8 30.47 6.12 20.09 6.12 20.09 17.86 10.38 17.86 10.38 6.12 0 6.12 0 39.8 0 39.8"/><polygon class="cls-9" points="35.85 39.8 45.19 39.8 45.19 15.32 35.85 15.32 35.85 39.8 35.85 39.8"/><path class="cls-9" d="M50.52,39.8h9.34v-9.67c0-1.74,.22-3.15,.65-4.25,.43-1.09,1.06-1.89,1.9-2.41,.84-.51,1.88-.76,3.11-.75,.62,0,1.15,.03,1.58,.09,.43,.06,.82,.13,1.15,.22,.32,.09,.64,.2,.95,.31V15.08c-.45-.12-.9-.21-1.35-.28-.45-.07-.91-.1-1.38-.1-1.12,0-2.11,.17-2.96,.53-.85,.35-1.6,.86-2.23,1.52-.64,.68-1.2,1.5-1.7,2.48h-.09v-3.91h-8.96v24.48h0Z"/><path class="cls-9" d="M78.54,24.8c.21-1.33,.72-2.34,1.53-3.04,.8-.7,1.89-1.05,3.29-1.06,.81,0,1.52,.2,2.13,.56,.62,.37,1.1,.86,1.45,1.48,.35,.61,.52,1.31,.53,2.07h-8.91Zm17.88,4.86c0-3.18-.47-5.89-1.45-8.11-.97-2.22-2.49-3.91-4.54-5.08-2.05-1.16-4.69-1.75-7.92-1.76-1.94,0-3.7,.35-5.28,1.01-1.58,.67-2.94,1.6-4.08,2.77-1.14,1.19-2.01,2.55-2.63,4.11-.62,1.56-.93,3.23-.94,5.02,0,2.04,.36,3.85,1.05,5.44,.68,1.58,1.64,2.92,2.89,4.01,1.23,1.09,2.68,1.92,4.35,2.48,1.67,.57,3.48,.85,5.45,.85,1.4,0,2.75-.16,4.05-.46,1.31-.31,2.52-.79,3.63-1.42,1.12-.64,2.09-1.44,2.93-2.41,.84-.97,1.5-2.11,1.98-3.44h-8.73c-.26,.39-.6,.72-1.01,.97-.42,.26-.88,.46-1.38,.58-.5,.13-1.01,.19-1.52,.19-.97,0-1.8-.21-2.48-.61-.68-.41-1.21-.97-1.59-1.68-.39-.71-.61-1.53-.69-2.47h17.92Z"/><polygon class="cls-1" points="100.42 39.8 110.23 39.8 110.23 18.19 110.33 18.19 116.18 39.8 123.91 39.8 129.76 18.19 129.86 18.19 129.86 39.8 139.67 39.8 139.67 6.12 124.9 6.12 120.09 25.93 120 25.93 115.19 6.12 100.42 6.12 100.42 39.8 100.42 39.8"/><path class="cls-1" d="M152.78,24.8c.21-1.33,.72-2.34,1.53-3.04,.8-.7,1.89-1.05,3.29-1.06,.81,0,1.52,.2,2.13,.56,.62,.37,1.1,.86,1.45,1.48,.35,.61,.52,1.31,.53,2.07h-8.91Zm17.88,4.86c0-3.18-.47-5.89-1.45-8.11-.97-2.22-2.49-3.91-4.54-5.08-2.05-1.16-4.69-1.75-7.92-1.76-1.94,0-3.7,.35-5.28,1.01-1.58,.67-2.94,1.6-4.08,2.77-1.14,1.19-2.01,2.55-2.63,4.11-.62,1.56-.93,3.23-.94,5.02,0,2.04,.36,3.85,1.05,5.44,.68,1.58,1.64,2.92,2.89,4.01,1.23,1.09,2.68,1.92,4.35,2.48,1.67,.57,3.48,.85,5.45,.85,1.4,0,2.75-.16,4.05-.46,1.31-.31,2.52-.79,3.63-1.42,1.12-.64,2.09-1.44,2.93-2.41,.84-.97,1.5-2.11,1.98-3.44h-8.73c-.26,.39-.6,.72-1.01,.97-.42,.26-.88,.46-1.38,.58-.5,.13-1.01,.19-1.52,.19-.97,0-1.8-.21-2.48-.61-.68-.41-1.21-.97-1.59-1.68-.39-.71-.61-1.53-.69-2.47h17.92Z"/><polygon class="cls-6" points="36.71 2.88 34.1 5.47 40.52 12.96 46.93 5.47 44.33 2.88 41.96 2.62 40.52 2.64 39.08 2.62 36.71 2.88 36.71 2.88"/><path class="cls-1" d="M182.5,24.8c.21-1.33,.72-2.34,1.53-3.04,.8-.7,1.89-1.05,3.29-1.06,.81,0,1.52,.2,2.13,.56,.62,.37,1.1,.86,1.45,1.48,.35,.61,.52,1.31,.53,2.07h-8.91Zm17.88,4.86c0-3.18-.47-5.89-1.45-8.11-.97-2.22-2.49-3.91-4.54-5.08-2.05-1.16-4.69-1.75-7.92-1.76-1.94,0-3.7,.35-5.28,1.01-1.58,.67-2.94,1.6-4.08,2.77-1.14,1.19-2.01,2.55-2.63,4.11-.62,1.56-.93,3.23-.94,5.02,0,2.04,.36,3.85,1.05,5.44,.68,1.58,1.64,2.92,2.89,4.01,1.23,1.09,2.68,1.92,4.35,2.48,1.67,.57,3.48,.85,5.45,.85,1.4,0,2.75-.16,4.05-.46,1.3-.31,2.52-.79,3.63-1.42,1.12-.64,2.09-1.44,2.93-2.41,.84-.97,1.5-2.11,1.98-3.44h-8.73c-.26,.39-.6,.72-1.01,.97-.42,.26-.88,.46-1.38,.58-.5,.13-1.01,.19-1.52,.19-.97,0-1.8-.21-2.48-.61-.68-.41-1.21-.97-1.59-1.68-.39-.71-.61-1.53-.69-2.47h17.92Z"/></g></g></svg>